<?xml version="1.0" standalone="no"?>
<!DOCTYPE svg PUBLIC "-//W3C//DTD SVG 20010904//EN"
 "http://www.w3.org/TR/2001/REC-SVG-20010904/DTD/svg10.dtd">
<svg version="1.0" xmlns="http://www.w3.org/2000/svg"
 width="2000.000000pt" height="2000.000000pt" viewBox="0 0 2000.000000 2000.000000"
 preserveAspectRatio="xMidYMid meet">
<metadata>
Created by potrace 1.14, written by Peter Selinger 2001-2017
</metadata>
<g transform="translate(0.000000,2000.000000) scale(0.100000,-0.100000)"
fill="#000000" stroke="none">
<path d="M9725 18598 c-324 -187 -648 -374 -720 -416 -71 -41 -143 -82 -160
-92 -16 -10 -59 -34 -95 -55 -36 -21 -78 -45 -95 -55 -16 -10 -91 -53 -165
-95 -74 -43 -151 -87 -171 -99 -20 -11 -231 -133 -468 -269 -254 -147 -433
-256 -436 -267 -3 -10 -15 -20 -25 -23 -20 -5 -20 -18 -20 -845 l0 -841 29
-20 c16 -12 35 -21 43 -21 10 0 280 152 660 373 20 12 40 18 45 14 4 -5 9
-326 11 -713 2 -636 1 -704 -13 -704 -9 0 -48 22 -88 49 -189 127 -568 345
-824 473 -641 322 -1161 494 -1723 570 -125 16 -518 16 -635 0 -204 -30 -446
-87 -550 -132 -11 -4 -47 -18 -80 -31 -140 -53 -315 -147 -925 -499 -355 -205
-663 -383 -685 -395 -22 -13 -80 -47 -130 -75 -49 -29 -115 -66 -145 -83 -30
-16 -66 -38 -80 -47 -14 -10 -44 -27 -68 -39 -23 -12 -62 -41 -87 -65 l-45
-43 3 -4319 c2 -2375 7 -4337 11 -4359 11 -52 32 -74 124 -128 171 -99 500
-289 1372 -792 503 -290 985 -568 1070 -618 85 -49 580 -335 1100 -635 520
-300 988 -570 1040 -600 52 -31 151 -88 220 -127 192 -111 1957 -1130 2292
-1324 164 -95 306 -172 315 -173 10 0 41 9 69 19 54 21 1203 681 1282 737 l47
33 5 1706 c3 1118 8 1709 15 1716 6 5 136 82 290 171 326 188 464 278 595 388
173 144 358 354 473 535 20 31 43 57 51 57 8 0 68 -31 133 -69 65 -37 370
-214 678 -391 308 -178 614 -355 680 -393 66 -38 175 -100 242 -139 69 -40
120 -75 117 -81 -3 -10 -740 -440 -958 -560 -28 -16 -73 -43 -101 -59 -46 -29
-423 -248 -645 -376 -142 -81 -163 -94 -445 -257 -121 -69 -226 -133 -234
-140 -19 -18 -7 -55 27 -81 15 -12 248 -148 517 -304 270 -156 552 -318 627
-362 132 -76 138 -78 165 -65 15 8 39 17 53 20 33 8 1280 728 1331 768 l39 31
0 578 c0 376 4 581 10 585 6 3 220 -115 478 -263 257 -148 482 -277 500 -286
32 -17 36 -17 95 7 62 23 1200 675 1310 749 l57 39 0 3483 c0 3305 1 3484 18
3498 9 8 172 104 362 213 190 109 357 207 373 217 l27 19 0 834 0 835 -34 35
c-19 19 -38 35 -43 35 -5 0 -173 -94 -373 -210 -201 -115 -373 -210 -383 -210
-10 0 -26 9 -35 20 -10 11 -228 142 -487 291 -258 149 -483 279 -500 289 -16
10 -73 42 -125 72 -144 83 -403 233 -615 355 -104 61 -527 305 -940 543 -412
238 -763 440 -780 450 -16 10 -88 51 -160 92 -71 42 -215 125 -320 185 -104
61 -525 304 -935 540 -1046 604 -1053 608 -1057 620 -2 6 135 90 304 188 383
221 391 226 396 247 12 44 -35 78 -368 270 -182 105 -343 198 -360 208 -16 10
-88 51 -160 92 -71 41 -189 109 -262 151 -134 78 -149 86 -261 151 -35 20 -71
36 -80 36 -10 -1 -282 -154 -607 -342z m719 194 c290 -167 445 -258 478 -279
21 -12 40 -23 43 -23 2 0 34 -18 70 -40 36 -22 67 -40 69 -40 3 0 51 -27 108
-61 57 -34 121 -71 143 -83 64 -36 310 -178 314 -182 2 -2 -16 -15 -40 -29
-133 -78 -351 -205 -354 -205 -15 0 -277 -165 -285 -180 -18 -34 -12 -75 18
-102 15 -14 104 -69 197 -123 94 -54 184 -105 200 -115 17 -9 95 -54 175 -100
80 -46 173 -101 208 -122 34 -21 65 -38 67 -38 3 0 22 -11 43 -23 20 -13 57
-35 82 -49 25 -14 90 -51 145 -83 55 -32 114 -66 130 -75 17 -9 75 -43 130
-75 55 -32 156 -90 225 -130 69 -40 199 -115 290 -167 91 -53 181 -105 200
-116 19 -11 91 -52 160 -92 69 -40 229 -132 355 -205 127 -73 302 -175 390
-226 88 -50 174 -100 190 -109 17 -10 75 -43 130 -75 55 -32 120 -69 145 -83
25 -14 61 -35 80 -47 19 -12 130 -76 245 -142 116 -67 277 -160 359 -207 82
-47 150 -86 153 -86 2 0 16 -8 31 -19 26 -18 232 -138 337 -197 28 -15 104
-59 170 -97 66 -38 192 -111 280 -162 88 -51 211 -122 274 -159 62 -36 115
-66 117 -66 3 0 21 -11 42 -23 20 -13 57 -35 82 -49 25 -14 90 -51 145 -83 55
-32 110 -63 122 -69 13 -6 23 -13 23 -16 0 -3 -49 -33 -108 -67 -59 -33 -179
-103 -267 -153 -88 -51 -176 -102 -195 -113 -61 -34 -292 -169 -368 -214 -40
-23 -75 -43 -78 -43 -2 0 -21 -11 -42 -23 -20 -13 -58 -35 -83 -49 -25 -14
-54 -31 -65 -38 -17 -10 -40 0 -174 78 -176 101 -528 305 -578 333 -116 67
-218 126 -382 221 -130 75 -417 241 -460 266 -19 11 -224 129 -455 262 -231
134 -440 254 -465 268 -25 14 -101 58 -168 99 -68 40 -126 73 -128 73 -2 0
-33 18 -69 40 -36 22 -67 40 -69 40 -3 0 -51 27 -108 61 -57 34 -121 71 -143
83 -22 13 -101 58 -175 101 -112 65 -580 335 -685 395 -16 10 -100 58 -185
107 -85 50 -256 149 -380 220 -124 71 -286 165 -360 208 -74 43 -155 89 -180
103 -25 14 -89 52 -143 84 -55 32 -101 58 -103 58 -2 0 -36 20 -76 43 -86 52
-316 185 -373 217 -22 12 -70 40 -108 62 -85 51 -110 49 -227 -19 -188 -109
-427 -247 -465 -269 -22 -12 -71 -41 -110 -63 -38 -23 -74 -41 -78 -41 -8 0
-168 91 -542 307 -66 38 -140 81 -165 95 -184 104 -607 351 -615 359 -11 11
14 34 73 64 21 11 65 37 100 57 34 21 64 38 67 38 3 0 33 17 67 38 35 21 144
85 243 142 99 57 277 160 395 228 118 69 233 135 255 147 22 13 81 46 130 75
50 29 110 64 135 78 25 14 62 36 82 49 21 12 40 23 42 23 2 0 40 21 83 46 71
43 293 171 367 214 17 10 72 41 121 70 50 29 108 62 130 74 73 41 369 213 420
244 28 17 56 31 64 31 7 1 59 -25 115 -57z m-2975 -1626 c17 -15 1406 -818
1433 -829 11 -4 95 39 235 120 330 190 312 180 323 163 14 -21 14 -5087 0
-5095 -12 -8 -1208 678 -1232 707 -22 25 -24 95 -3 125 8 12 106 74 218 139
314 182 447 280 564 416 70 82 138 221 153 315 26 163 -39 341 -197 540 -124
156 -375 385 -603 548 -52 38 -107 80 -122 94 l-28 25 0 765 c0 697 -1 766
-17 783 -23 26 -76 23 -123 -7 -22 -14 -41 -25 -44 -25 -2 0 -60 -33 -127 -73
-226 -133 -446 -257 -458 -257 -8 0 -11 207 -11 780 0 589 3 780 12 780 6 0
19 -6 27 -14z m3187 -932 c1017 -587 1310 -756 1544 -892 222 -128 1974 -1139
2040 -1177 334 -192 1436 -829 1440 -832 7 -6 20 2 -420 -253 -173 -100 -321
-186 -327 -192 -10 -8 -13 -190 -13 -848 l0 -838 35 -31 c20 -17 38 -31 41
-31 10 0 89 44 383 214 167 97 308 176 312 176 5 0 9 -1181 9 -2670 0 -1468
-2 -2670 -4 -2670 -3 0 -177 100 -388 222 -211 122 -441 255 -513 296 -71 41
-143 82 -160 92 -16 10 -190 110 -385 223 -563 325 -1344 776 -1360 786 -12 8
-12 29 3 168 68 625 75 1236 21 1768 -46 450 -149 804 -299 1028 -57 85 -171
192 -245 231 -178 94 -397 93 -650 -1 -95 -36 -281 -125 -349 -167 -20 -13
-56 -34 -81 -48 -25 -14 -100 -57 -167 -97 -68 -39 -130 -71 -139 -71 -9 0
-23 9 -32 20 -10 10 -73 51 -142 91 -110 63 -329 189 -415 239 -16 9 -53 31
-81 47 -27 17 -70 41 -95 55 -24 14 -114 66 -199 115 -85 49 -175 101 -200
115 -117 65 -227 133 -247 151 l-23 20 0 2597 c0 2343 2 2598 16 2618 19 28
112 82 140 82 12 0 439 -241 950 -536z m-5076 -763 c117 -17 223 -37 370 -71
154 -35 469 -138 672 -219 256 -102 612 -272 841 -402 38 -22 71 -39 73 -39 3
0 71 -39 154 -90 8 -5 51 -30 95 -56 123 -73 388 -248 505 -332 348 -252 591
-499 696 -705 67 -131 71 -284 10 -410 -80 -165 -256 -322 -554 -493 -57 -32
-117 -67 -134 -77 -17 -10 -90 -52 -162 -93 -72 -41 -141 -87 -153 -102 -25
-30 -30 -79 -10 -104 10 -13 211 -138 222 -138 2 0 50 -27 107 -61 57 -34 121
-71 143 -83 55 -31 283 -164 378 -220 43 -25 81 -46 83 -46 2 0 21 -11 42 -23
20 -13 57 -35 82 -49 25 -14 158 -91 295 -170 138 -80 358 -207 490 -283 132
-76 284 -165 338 -197 55 -32 101 -58 103 -58 2 0 33 -18 69 -40 36 -22 67
-40 69 -40 3 0 62 -34 131 -75 70 -41 129 -75 131 -75 2 0 32 -17 66 -38 35
-21 71 -41 81 -45 28 -11 17 -26 -43 -59 -47 -26 -402 -230 -735 -423 -55 -32
-113 -66 -130 -75 -121 -68 -232 -133 -239 -141 -17 -16 -43 -10 -94 20 -26
15 -68 39 -93 53 -24 14 -118 68 -209 120 -91 53 -181 105 -200 115 -19 11
-73 43 -120 70 -47 28 -177 103 -290 168 -217 125 -302 174 -520 300 -350 202
-398 230 -440 253 -25 14 -49 28 -55 32 -9 7 -299 175 -384 222 -19 11 -102
59 -185 107 -83 49 -171 100 -196 113 -25 14 -202 117 -395 228 -192 112 -366
212 -385 223 -51 28 -283 163 -368 214 -40 23 -75 43 -77 43 -3 0 -34 18 -70
40 -36 22 -67 40 -70 40 -3 0 -29 16 -59 35 -30 19 -57 35 -60 35 -3 0 -35 18
-71 40 -36 22 -68 40 -70 40 -3 0 -22 11 -43 24 -34 21 -318 186 -406 235 -21
12 -135 79 -255 148 -119 69 -234 136 -256 149 -22 12 -80 45 -130 74 -49 29
-110 64 -135 78 -25 14 -88 50 -140 80 -255 147 -358 207 -392 229 -21 12 -40
23 -42 23 -2 0 -48 26 -103 58 -54 32 -118 70 -143 84 -25 14 -106 60 -180
103 -190 110 -644 372 -709 409 -30 17 -56 36 -58 43 -2 6 9 17 24 25 35 18
355 203 405 234 21 13 40 24 43 24 2 0 34 18 70 40 36 22 67 40 70 40 3 0 29
16 59 35 30 19 58 35 61 35 3 0 22 11 43 23 20 13 57 35 82 49 25 14 90 51
145 83 55 32 186 108 290 168 105 60 244 141 310 179 360 209 670 318 1015
357 52 6 111 13 130 15 84 10 442 -5 570 -23z m12220 -1794 c0 -419 -4 -767
-8 -773 -6 -9 -162 -103 -302 -182 -100 -56 -307 -177 -342 -199 -21 -12 -41
-23 -45 -23 -5 0 -26 -16 -48 -34 l-40 -34 -3 -3483 -3 -3484 -156 -90 c-86
-49 -179 -103 -207 -118 -28 -16 -72 -42 -99 -58 -26 -16 -49 -29 -52 -29 -3
0 -29 -16 -59 -35 -30 -19 -58 -35 -61 -35 -3 0 -22 -11 -43 -23 -20 -13 -57
-35 -82 -49 -46 -26 -149 -85 -349 -202 -62 -36 -115 -66 -117 -66 -2 0 -4
1543 -4 3429 l0 3428 -21 27 c-15 19 -30 26 -56 26 -35 0 -76 -22 -536 -288
-87 -51 -160 -92 -163 -92 -2 0 -3 349 -2 776 l3 777 215 125 c118 68 231 133
250 144 72 41 125 72 535 308 630 364 677 391 715 413 19 10 76 43 125 72 150
88 319 185 545 315 118 68 255 147 304 176 49 29 93 51 98 48 4 -3 8 -348 8
-767z m-15598 424 c24 -15 295 -173 603 -351 649 -374 605 -347 605 -361 0 -6
-9 -22 -20 -36 -20 -25 -20 -41 -20 -1053 0 -1010 0 -1027 20 -1045 32 -29 95
-16 171 35 164 111 252 202 324 333 67 123 101 230 129 402 25 152 38 436 35
722 -3 177 0 273 6 274 21 2 1164 -665 1168 -682 3 -9 1 -39 -3 -66 -4 -26
-13 -82 -19 -123 -14 -94 -30 -183 -41 -235 -5 -22 -14 -67 -21 -100 -53 -258
-155 -570 -253 -771 -126 -256 -243 -421 -445 -623 -176 -177 -366 -317 -626
-461 -22 -12 -92 -53 -155 -90 -63 -37 -147 -86 -186 -108 -39 -23 -79 -53
-88 -66 -15 -23 -16 -166 -16 -1720 l0 -1695 -27 -14 c-31 -16 -577 -331 -663
-382 -30 -18 -71 -42 -90 -52 -89 -50 -377 -217 -395 -229 -11 -8 -27 -14 -37
-14 -17 0 -18 185 -18 4270 0 2690 4 4270 9 4270 6 0 29 -13 53 -29z m1562
-899 c138 -79 193 -116 205 -138 14 -25 16 -80 16 -424 0 -481 -12 -601 -78
-813 -33 -108 -93 -220 -157 -297 -59 -70 -220 -199 -268 -214 l-22 -7 0 985
0 986 33 21 c19 12 42 18 57 15 14 -3 110 -54 214 -114z m4389 -897 c4 -8 2
-17 -4 -21 -15 -9 -39 3 -39 21 0 19 36 20 43 0z m-1942 -515 c470 -272 886
-512 925 -534 928 -534 1003 -579 1014 -610 7 -20 10 -292 10 -825 0 -438 2
-805 5 -816 5 -17 -24 -37 -211 -145 -119 -69 -233 -135 -253 -146 -80 -47
-238 -138 -273 -157 -47 -26 -51 -61 -10 -99 15 -14 119 -78 232 -143 113 -65
279 -161 370 -213 684 -396 837 -482 855 -482 11 0 182 94 380 209 198 115
363 206 368 204 8 -5 10 -5373 1 -5373 -6 0 -74 37 -199 110 -49 29 -103 60
-120 70 -92 53 -304 175 -330 190 -16 10 -228 132 -469 271 -242 140 -441 259
-443 265 -2 7 60 49 139 94 482 278 593 354 719 488 133 142 188 264 189 412
0 100 -18 176 -61 263 -187 369 -682 778 -1514 1250 -248 140 -504 267 -800
396 -91 40 -259 103 -455 171 -94 33 -361 104 -485 129 -33 7 -78 17 -100 21
-22 5 -76 14 -120 19 -44 6 -115 15 -158 21 -101 13 -434 13 -534 0 -347 -46
-596 -119 -872 -255 -58 -29 -200 -107 -316 -174 -115 -66 -216 -121 -222
-121 -19 0 -19 3329 0 3352 6 9 118 77 247 151 454 261 577 346 769 532 315
305 524 667 659 1140 71 247 107 416 142 660 26 180 26 178 48 173 10 -3 403
-227 873 -498z m5957 -800 c321 -42 529 -410 616 -1095 38 -291 41 -361 41
-870 0 -576 -10 -743 -71 -1175 -137 -970 -445 -1565 -1038 -2002 -91 -68
-233 -154 -576 -351 -102 -59 -192 -117 -200 -129 -13 -20 -16 -237 -20 -1722
l-5 -1698 -260 -150 c-143 -83 -280 -162 -305 -176 -25 -14 -62 -36 -82 -49
-21 -12 -40 -23 -42 -23 -2 0 -40 -21 -83 -46 -97 -58 -324 -189 -379 -220
-23 -13 -44 -20 -48 -17 -3 4 -6 1922 -6 4263 l0 4256 68 39 c37 22 76 44 87
51 58 32 501 288 510 294 6 4 30 19 55 32 25 14 96 55 159 92 62 36 115 66
117 66 2 0 36 20 76 43 89 53 370 217 418 244 19 11 100 58 180 103 272 157
462 230 625 243 77 7 91 6 163 -3z m-3328 -724 c322 -185 595 -348 608 -362
13 -15 22 -38 22 -57 0 -36 -6 -47 -36 -64 -76 -42 -502 -288 -534 -308 -22
-14 -42 -25 -44 -25 -2 0 -51 -27 -108 -61 -57 -34 -121 -71 -143 -84 -69 -39
-298 -171 -337 -194 -21 -13 -42 -20 -48 -16 -12 7 -15 1497 -3 1509 4 4 14 5
23 3 8 -2 278 -156 600 -341z m765 -436 c7 -11 -42 -37 -51 -27 -4 3 -4 13 -1
22 7 17 42 21 52 5z m-3945 -4332 c254 -85 593 -261 915 -474 202 -134 283
-212 305 -294 13 -50 -5 -99 -58 -153 -37 -39 -153 -127 -167 -127 -4 0 -21
-10 -37 -22 -27 -18 -33 -19 -52 -8 -20 13 -1241 718 -1496 864 -161 93 -170
99 -170 112 0 18 192 113 272 134 61 17 97 20 213 16 135 -3 145 -5 275 -48z
m8900 -767 l0 -680 -57 -32 c-32 -18 -110 -63 -173 -99 -63 -37 -131 -77 -151
-88 -19 -11 -93 -53 -165 -94 -176 -102 -289 -167 -489 -283 -93 -53 -174
-101 -180 -106 -35 -33 -35 -26 -35 669 l0 677 68 39 c83 49 521 302 697 403
72 41 137 79 145 84 51 32 326 188 333 189 4 0 7 -306 7 -679z"/>
<path d="M12775 13189 c-286 -165 -567 -328 -625 -361 -58 -33 -121 -70 -140
-80 -46 -26 -70 -48 -70 -65 0 -38 98 -101 691 -442 345 -199 633 -361 641
-361 18 0 1326 755 1352 779 20 20 16 43 -12 77 -10 12 -223 140 -473 284
-250 145 -467 270 -484 280 -197 114 -335 190 -346 190 -8 0 -248 -136 -534
-301z m570 197 c17 -11 212 -125 319 -186 17 -9 76 -43 131 -75 55 -32 116
-67 135 -78 19 -11 91 -52 160 -92 69 -40 184 -107 255 -148 72 -41 129 -78
128 -83 -2 -8 -45 -34 -183 -112 -25 -14 -62 -36 -82 -49 -21 -12 -40 -23 -42
-23 -2 0 -40 -21 -83 -46 -43 -26 -150 -88 -238 -139 -88 -51 -258 -149 -378
-218 -120 -70 -225 -127 -234 -127 -9 0 -38 14 -65 30 -26 17 -50 30 -52 30
-2 0 -33 17 -67 38 -35 22 -156 92 -269 157 -215 123 -380 219 -593 343 l-128
75 56 33 c31 19 58 34 60 34 2 0 50 27 107 61 57 34 121 71 143 83 22 13 85
49 140 81 55 32 172 100 260 150 88 51 230 133 315 183 85 50 162 91 170 91 9
1 24 -5 35 -13z"/>
<path d="M5230 14388 c-100 -21 -189 -52 -270 -95 -151 -79 -177 -111 -146
-172 16 -30 69 -65 326 -212 52 -30 103 -58 112 -64 10 -5 61 -35 115 -66 54
-31 150 -87 213 -124 63 -37 138 -79 165 -95 28 -15 91 -51 140 -80 50 -29
104 -60 120 -70 17 -9 86 -50 155 -89 406 -236 439 -254 474 -248 50 8 203
108 267 174 76 77 93 114 93 188 -1 143 -105 251 -454 473 -69 43 -152 94
-185 112 -33 18 -64 36 -70 40 -5 5 -89 48 -185 98 -389 199 -670 273 -870
230z m398 -142 c215 -59 532 -213 878 -427 324 -200 430 -308 408 -418 -12
-58 -123 -161 -251 -231 l-41 -23 -134 78 c-73 43 -151 88 -173 100 -22 13
-80 47 -130 76 -49 29 -164 95 -255 147 -91 52 -181 104 -201 116 -20 11 -103
59 -184 106 -81 47 -157 95 -170 107 -19 20 -23 38 -29 125 -4 57 -12 136 -17
176 -14 103 -11 106 111 99 53 -3 136 -17 188 -31z m-393 -18 c3 -13 11 -79
18 -147 10 -96 10 -124 1 -128 -11 -4 -209 103 -278 150 -28 19 -28 21 -10 34
25 19 150 82 194 99 52 19 69 17 75 -8z"/>
<path d="M6955 9809 c-116 -69 -126 -75 -230 -134 -132 -76 -178 -103 -295
-170 -36 -21 -76 -44 -90 -52 -14 -7 -167 -96 -340 -196 l-315 -183 -3 -741
-2 -741 35 -22 c20 -12 44 -20 54 -17 10 2 238 132 507 287 269 156 563 326
654 378 91 52 168 100 172 106 4 6 8 335 8 731 l0 720 -25 38 c-14 20 -33 37
-43 37 -9 0 -48 -19 -87 -41z m55 -736 l0 -688 -28 -16 c-15 -8 -87 -51 -161
-93 -74 -43 -151 -87 -170 -98 -20 -11 -76 -44 -126 -73 -49 -29 -106 -61
-125 -72 -19 -11 -80 -46 -135 -78 -116 -67 -411 -237 -471 -271 -23 -13 -44
-20 -48 -17 -3 4 -6 311 -6 684 l0 678 33 25 c19 15 37 26 40 26 4 0 47 25 97
55 50 30 92 55 95 55 2 0 50 27 107 61 57 34 121 71 143 83 59 34 356 205 555
322 96 56 181 103 188 103 9 1 12 -143 12 -686z"/>
<path d="M11280 9192 c-76 -11 -289 -119 -337 -170 l-23 -25 0 -1029 0 -1029
26 -26 c38 -37 85 -28 187 39 90 58 240 200 279 263 113 182 152 308 189 613
18 150 15 793 -5 927 -36 251 -83 368 -164 412 -37 21 -105 32 -152 25z m174
-175 c10 -21 26 -69 36 -106 20 -78 46 -298 37 -307 -8 -8 1 -13 -242 129
-115 67 -210 128 -210 135 0 19 306 192 335 190 18 -2 30 -14 44 -41z m-300
-1818 c47 -27 86 -54 86 -59 0 -22 -183 -155 -200 -145 -11 7 -14 213 -4 239
9 25 26 20 118 -35z"/>
</g>
</svg>
